<?xml version="1.0" standalone="no"?>
<!DOCTYPE svg PUBLIC "-//W3C//DTD SVG 20010904//EN"
 "http://www.w3.org/TR/2001/REC-SVG-20010904/DTD/svg10.dtd">
<svg version="1.0" xmlns="http://www.w3.org/2000/svg"
 width="1008.000000pt" height="1004.000000pt" viewBox="0 0 1008.000000 1004.000000"
 preserveAspectRatio="xMidYMid meet">

<g transform="translate(0.000000,1004.000000) scale(0.100000,-0.100000)"
fill="#000000" stroke="none">
<path d="M0 5020 l0 -5020 5040 0 5040 0 0 5020 0 5020 -5040 0 -5040 0 0
-5020z m354 4727 c277 -232 301 -249 320 -237 11 7 150 121 308 252 158 131
289 238 292 238 4 0 6 -141 6 -313 l0 -313 -305 -255 c-168 -140 -309 -255
-313 -257 -4 -1 -148 115 -320 258 l-312 260 0 316 c0 249 3 314 13 308 6 -5
147 -120 311 -257z m8749 0 c179 -149 304 -246 312 -243 8 3 147 116 309 251
161 135 297 245 300 245 3 0 6 -141 6 -313 l0 -313 -305 -255 c-168 -140 -308
-255 -313 -257 -4 -1 -148 115 -320 258 l-312 260 0 316 c0 249 3 314 13 308
6 -5 146 -120 310 -257z m-3796 -672 c51 -9 121 -24 155 -34 l63 -17 -3 -54
c-9 -165 -97 -580 -147 -688 -14 -30 -25 -58 -25 -62 0 -4 29 -26 65 -48 l65
-41 41 61 c87 127 193 375 239 556 6 24 15 42 20 40 23 -8 177 -137 222 -187
141 -154 263 -369 314 -551 14 -52 27 -101 29 -107 3 -9 28 -13 80 -13 67 0
79 -3 100 -25 30 -29 32 -74 6 -106 l-19 -24 -1476 -3 -1477 -2 -24 24 c-33
33 -33 79 0 111 21 22 33 25 100 25 52 0 77 4 80 13 2 6 15 55 29 107 51 182
173 397 314 551 45 50 199 179 222 187 5 2 14 -16 20 -40 45 -179 153 -430
239 -556 l41 -61 65 41 c36 22 65 44 65 48 0 4 -12 34 -26 66 -49 110 -121
441 -149 682 -5 49 -4 53 18 61 38 15 214 50 297 61 103 12 346 4 457 -15z
m-4939 -602 l290 -241 305 254 c168 140 308 254 311 254 3 0 6 -141 6 -313 l0
-313 -307 -257 c-169 -142 -312 -256 -319 -253 -7 3 -133 105 -281 228 -147
123 -285 237 -305 253 l-38 30 0 318 0 319 24 -19 c14 -10 155 -127 314 -260z
m8743 5 l297 -247 305 255 c168 140 308 254 311 254 3 0 6 -141 6 -313 l0
-313 -137 -114 c-75 -63 -213 -179 -307 -258 -94 -78 -175 -141 -180 -139 -6
2 -149 118 -318 258 l-307 254 -1 319 c0 301 1 318 17 305 10 -8 151 -125 314
-261z m-3026 -817 c79 -46 104 -78 126 -166 39 -153 100 -251 151 -243 29 4
45 62 55 195 5 85 8 92 29 97 40 10 104 -10 140 -45 49 -48 67 -112 62 -223
-5 -106 -29 -165 -81 -196 -39 -24 -113 -26 -164 -5 -20 8 -38 14 -39 12 -2
-2 -29 -77 -60 -168 -173 -511 -268 -704 -421 -850 -153 -147 -339 -215 -655
-240 -80 -6 -205 -8 -283 -4 -375 17 -583 87 -756 255 -161 157 -276 385 -449
887 -22 64 -42 118 -44 120 -2 2 -19 -4 -39 -12 -51 -21 -125 -19 -164 5 -52
31 -76 90 -81 196 -5 111 13 175 62 223 36 35 100 55 140 45 21 -5 24 -12 29
-87 9 -116 22 -157 51 -157 44 0 82 60 121 196 28 98 46 122 120 165 l50 29
1025 0 1025 0 50 -29z m-5723 -445 l296 -246 306 255 c168 140 308 255 311
255 3 0 5 -141 5 -314 l0 -315 -306 -256 c-169 -141 -312 -255 -318 -253 -7 2
-150 118 -319 258 l-306 255 -1 319 c0 303 1 318 18 304 9 -8 151 -126 314
-262z m8750 0 l296 -247 302 253 c166 139 306 255 311 256 5 2 9 -133 9 -312
l0 -315 -306 -256 c-169 -141 -312 -255 -318 -253 -6 2 -149 118 -318 258
l-308 255 0 319 c0 303 1 318 18 304 9 -8 151 -126 314 -262z m-8762 -1250
c151 -126 283 -236 292 -243 15 -13 47 11 325 242 l308 256 3 -308 c1 -169 0
-313 -2 -318 -6 -16 -603 -515 -616 -515 -6 0 -150 116 -320 257 l-310 258 0
318 0 318 23 -18 c12 -10 146 -121 297 -247z m8750 -1 c151 -125 283 -235 292
-242 15 -13 47 11 325 242 l308 257 3 -313 3 -314 -38 -33 c-129 -114 -575
-482 -584 -482 -6 0 -150 116 -320 257 l-309 258 0 319 0 319 23 -20 c12 -11
146 -123 297 -248z m-4222 -216 c147 -10 445 0 511 18 l23 6 -3 -89 c-3 -77
-9 -99 -36 -155 -39 -80 -111 -150 -191 -187 -49 -23 -70 -27 -152 -27 -82 0
-103 4 -153 27 -80 38 -158 114 -193 191 -23 50 -29 80 -32 151 l-4 89 38 -7
c22 -3 108 -11 192 -17z m-528 -549 l0 -430 -130 0 -130 0 0 344 0 343 121 87
c67 47 125 86 130 86 5 0 9 -182 9 -430z m1597 338 l113 -81 0 -343 0 -344
-130 0 -130 0 0 431 c0 404 1 431 17 425 10 -4 68 -44 130 -88z m-1937 -698
l0 -160 210 0 210 0 0 160 0 160 645 0 645 0 0 -160 0 -160 210 0 210 0 0 160
0 160 183 0 184 0 37 -75 c20 -42 47 -113 61 -160 25 -88 52 -283 42 -309 -6
-14 -162 -16 -1567 -16 -1405 0 -1561 2 -1567 16 -9 23 15 212 38 295 11 41
38 113 61 162 l41 87 179 0 178 0 0 -160z m-3810 -16 c0 -2 -38 -4 -85 -4
l-85 0 0 76 0 75 85 -72 c47 -39 85 -73 85 -75z m1079 -181 l0 -318 -309 -258
-309 -257 -316 261 -315 262 0 44 0 43 132 0 c175 0 168 -7 168 167 l0 134
118 -98 c64 -54 138 -116 164 -137 l48 -38 307 256 c169 141 308 256 310 256
2 0 3 -143 2 -317z m7819 62 c169 -140 309 -255 312 -255 3 0 75 59 160 131
l155 130 5 -136 c4 -106 8 -138 20 -145 8 -5 75 -10 148 -10 l132 0 0 -47 -1
-48 -309 -258 -310 -258 -315 262 -315 262 0 314 c0 172 3 313 6 313 3 0 144
-115 312 -255z m929 118 c-3 -2 -41 -3 -85 -1 l-81 3 82 68 82 67 3 -66 c2
-37 1 -68 -1 -71z m-9917 -168 l-22 -35 23 -37 c13 -20 17 -33 11 -29 -7 4
-19 21 -27 37 -16 29 -11 50 18 87 20 25 18 11 -3 -23z m9855 -6 c14 -26 14
-32 0 -58 -8 -17 -20 -33 -27 -37 -6 -4 -2 9 11 29 l23 37 -23 37 c-13 20 -17
33 -11 29 7 -4 19 -20 27 -37z m-2765 -1969 l0 -1680 -2170 0 -2170 0 0 1680
0 1680 2170 0 2170 0 0 -1680z m-6859 770 c165 -138 305 -253 312 -255 7 -3
116 82 243 188 127 105 265 220 307 255 l77 63 -1 -318 0 -318 -305 -255
c-168 -140 -309 -255 -314 -255 -4 0 -148 116 -319 258 l-311 258 0 315 c0
173 2 314 5 314 3 0 141 -113 306 -250z m8755 -5 c169 -140 309 -255 313 -255
3 0 101 79 216 176 116 96 254 211 308 255 l97 80 0 -318 -1 -318 -306 -255
c-168 -140 -309 -255 -313 -255 -5 0 -148 116 -319 258 l-311 258 0 315 c0
173 2 314 5 314 3 0 143 -115 311 -255z m-8743 -1267 c163 -136 301 -248 305
-248 6 0 513 417 605 498 16 14 17 -1 17 -305 l0 -320 -305 -254 c-168 -140
-309 -255 -313 -256 -4 -2 -148 114 -319 257 l-313 261 0 315 c0 250 3 314 13
308 6 -5 146 -120 310 -256z m8750 0 c164 -136 302 -248 306 -248 4 0 124 97
267 216 142 119 280 234 307 256 l47 40 0 -319 0 -319 -305 -255 c-168 -140
-309 -254 -315 -254 -5 0 -149 116 -320 257 l-310 258 0 315 c0 247 3 315 12
309 7 -5 147 -120 311 -256z m-8742 -1270 l297 -246 305 254 c169 140 309 254
312 254 3 0 5 -141 5 -313 l0 -313 -42 -35 c-452 -379 -574 -479 -582 -476 -5
2 -148 118 -317 258 l-308 254 0 319 c-1 302 0 318 16 305 10 -8 151 -125 314
-261z m8750 0 l297 -246 305 254 c168 140 308 254 311 254 3 0 6 -141 6 -313
l0 -313 -304 -254 c-168 -140 -310 -255 -316 -255 -7 0 -151 115 -320 255
l-309 255 0 319 c-1 302 0 318 17 305 9 -8 150 -125 313 -261z"/>
<path d="M4155 4965 c-17 -17 -25 -35 -25 -60 0 -49 15 -74 56 -91 29 -12 39
-12 68 0 41 17 56 42 56 91 0 76 -100 116 -155 60z"/>
<path d="M5866 4964 c-47 -48 -32 -124 30 -150 29 -12 39 -12 68 0 41 17 56
42 56 91 0 79 -97 116 -154 59z"/>
<path d="M2987 4233 c-4 -3 -7 -705 -7 -1560 l0 -1553 2050 0 2050 0 -2 1558
-3 1557 -2041 3 c-1122 1 -2044 -1 -2047 -5z m2489 -254 c61 -30 81 -64 90
-156 l7 -73 -101 0 -101 0 -3 57 c-2 48 -6 58 -22 61 -41 8 -62 -71 -30 -116
8 -12 53 -47 98 -77 97 -64 141 -109 155 -162 16 -55 14 -197 -3 -238 -43
-103 -257 -137 -374 -60 -55 37 -73 79 -75 178 l-2 82 95 0 95 0 5 -80 c5 -75
7 -80 29 -83 13 -2 28 1 33 6 13 13 13 115 1 137 -5 9 -56 49 -113 89 -132 92
-150 121 -150 243 0 126 31 179 121 209 67 21 185 13 245 -17z m384 -384 l0
-405 -105 0 -105 0 0 405 0 405 105 0 105 0 0 -405z m-2390 383 c1 -52 39
-480 42 -484 3 -2 8 37 12 88 8 101 33 324 42 376 l6 32 108 0 107 0 6 -62 c4
-35 14 -153 23 -263 8 -110 17 -201 18 -203 2 -1 6 40 10 91 6 89 29 304 42
395 l6 42 99 0 99 0 -1 -32 c0 -18 -19 -197 -42 -398 l-43 -365 -131 -3 c-119
-2 -132 -1 -137 15 -4 14 -21 129 -57 381 -1 6 -56 -364 -58 -390 -1 -5 -59
-8 -130 -8 l-130 0 -6 43 c-9 67 -85 729 -85 744 0 18 200 19 200 1z m1018
-65 l-3 -78 -67 -3 -68 -3 0 -74 0 -75 65 0 65 0 0 -75 0 -75 -65 0 -65 0 0
-90 0 -90 75 0 75 0 0 -80 0 -80 -180 0 -180 0 0 400 0 400 175 0 176 0 -3
-77z m465 49 c53 -34 70 -72 75 -174 5 -100 -6 -129 -61 -152 l-32 -13 37 -16
c60 -25 73 -61 73 -202 -1 -204 -16 -215 -300 -215 l-185 0 0 401 0 401 178
-4 c165 -3 179 -5 215 -26z m1415 -49 l-3 -78 -62 -3 -63 -3 0 -319 0 -320
-105 0 -105 0 0 320 0 320 -60 0 -60 0 0 80 0 80 230 0 231 0 -3 -77z m392 -3
l0 -80 -70 0 -70 0 0 -75 0 -75 65 0 65 0 0 -75 0 -74 -62 -3 -63 -3 -3 -87
-3 -88 81 0 80 0 0 -80 0 -80 -185 0 -185 0 0 400 0 400 175 0 175 0 0 -80z
m-3208 -1320 c3 -424 4 -461 21 -477 21 -22 48 -9 58 28 4 13 7 223 8 467 l1
442 140 0 140 0 0 -462 0 -463 -24 -51 c-51 -110 -152 -159 -314 -152 -113 5
-185 32 -245 92 -65 65 -67 83 -67 588 l0 448 140 0 139 0 3 -460z m805 210
l81 -245 1 248 1 247 120 0 120 0 0 -555 0 -556 -127 3 -128 3 -72 240 -72
240 0 -242 -1 -243 -120 0 -120 0 0 555 0 556 118 -3 117 -3 82 -245z m808
241 c142 -11 193 -28 240 -83 53 -62 57 -100 53 -515 -3 -405 -3 -402 -67
-456 -46 -39 -111 -47 -366 -47 l-235 0 0 548 c0 302 3 552 7 555 9 10 225 8
368 -2z m880 -106 l0 -110 -92 -3 -93 -3 0 -104 0 -105 90 0 91 0 -3 -102 -3
-103 -87 -3 -88 -3 0 -119 0 -120 105 0 105 0 0 -110 0 -110 -250 0 -250 0 0
555 0 555 238 -2 237 -3 0 -110z m474 105 c109 -8 129 -12 169 -37 32 -19 54
-44 71 -78 24 -46 26 -60 26 -180 0 -161 -9 -184 -87 -213 l-52 -19 36 -12
c36 -12 77 -49 97 -88 7 -14 11 -100 11 -247 l0 -226 -129 0 -129 0 -4 231
c-3 229 -3 231 -27 250 -13 10 -32 19 -42 19 -18 0 -19 -12 -19 -250 l0 -250
-145 0 -145 0 0 555 0 555 123 0 c67 0 178 -5 246 -10z m-3090 -1324 c40 -18
59 -56 67 -128 l6 -68 -66 0 -66 0 0 65 c0 58 -2 65 -20 65 -19 0 -20 -7 -20
-165 0 -158 1 -165 20 -165 18 0 20 7 20 60 l0 61 63 -3 62 -3 -3 -58 c-3 -70
-13 -92 -55 -117 -41 -26 -137 -27 -177 -3 -45 26 -54 56 -58 207 -4 154 4
199 43 236 40 37 123 45 184 16z m330 0 c13 -6 34 -24 45 -39 19 -26 21 -42
21 -190 0 -178 -5 -195 -58 -227 -39 -24 -125 -27 -167 -5 -52 27 -60 57 -60
230 0 120 4 163 15 185 31 61 127 82 204 46z m618 14 c39 0 80 -49 87 -102 l6
-48 -60 0 -60 0 0 35 c0 29 -4 35 -21 35 -17 0 -20 -5 -17 -37 3 -32 10 -42
62 -77 84 -58 98 -81 99 -158 1 -73 -12 -102 -53 -123 -38 -20 -123 -19 -165
1 -38 18 -55 51 -58 115 l-2 44 57 3 57 3 3 -48 c2 -36 7 -49 20 -51 22 -4 34
41 20 73 -6 13 -39 42 -72 65 -73 50 -95 90 -87 163 3 35 12 56 29 74 27 27
80 44 113 37 11 -2 30 -4 42 -4z m1305 -17 c40 -20 55 -50 61 -125 l6 -68 -64
0 -65 0 0 65 c0 58 -2 65 -20 65 -19 0 -20 -7 -20 -166 0 -152 1 -165 18 -162
13 2 18 15 20 61 l3 58 62 -3 62 -3 -3 -53 c-1 -29 -7 -64 -12 -77 -31 -82
-209 -89 -261 -11 -22 33 -26 323 -5 368 33 70 134 94 218 51z m790 -1 c52
-30 60 -66 56 -243 l-3 -159 -32 -32 c-29 -29 -40 -33 -101 -36 -62 -4 -71 -2
-100 23 -46 39 -54 80 -50 248 l3 147 31 31 c50 49 132 58 196 21z m-2466 -80
c17 -51 34 -96 38 -99 3 -4 6 39 6 95 l0 102 50 0 50 0 0 -240 0 -240 -53 0
-53 0 -32 98 -31 97 -1 -97 0 -98 -55 0 -55 0 0 233 c0 129 3 237 7 241 4 4
28 6 53 4 l45 -3 31 -93z m762 46 l3 -48 -40 0 -41 0 0 -190 0 -190 -60 0 -60
0 0 190 0 190 -40 0 -40 0 0 43 c0 24 3 47 7 51 4 3 66 5 137 4 l131 -3 3 -47z
m201 43 c41 -6 60 -15 78 -35 42 -49 28 -186 -19 -186 -6 0 1 -9 16 -21 25
-20 26 -24 26 -125 l0 -104 -55 0 -54 0 -3 102 c-3 89 -5 103 -20 106 -16 3
-18 -7 -18 -102 l0 -106 -65 0 -65 0 0 233 c0 129 3 237 7 240 8 9 103 8 172
-2z m271 -180 c0 -197 3 -221 26 -221 12 0 14 37 14 205 l0 206 63 -3 62 -3 3
-145 c5 -215 -3 -267 -43 -307 -30 -30 -39 -33 -90 -33 -32 0 -72 7 -91 16
-59 28 -64 49 -64 274 l0 200 60 0 60 0 0 -189z m800 139 l0 -50 -35 0 -35 0
0 -190 0 -190 -65 0 -65 0 0 190 0 190 -35 0 -35 0 0 50 0 50 135 0 135 0 0
-50z m155 -195 l0 -240 -62 -3 -63 -3 0 246 0 246 63 -3 62 -3 0 -240z m518
143 l35 -103 1 103 1 102 50 0 50 0 0 -240 0 -240 -53 0 -52 0 -30 102 -30
102 -3 -102 -3 -102 -49 0 -50 0 0 240 0 240 49 0 49 0 35 -102z"/>
<path d="M4770 3771 c0 -90 0 -91 25 -91 31 0 45 26 45 87 0 54 -13 77 -47 88
-23 6 -23 5 -23 -84z"/>
<path d="M4770 3440 l0 -110 25 0 c34 0 45 27 45 110 0 83 -11 110 -45 110
l-25 0 0 -110z"/>
<path d="M5087 2854 c-4 -4 -7 -169 -7 -366 l0 -358 25 0 c14 0 34 9 45 20 19
19 20 33 20 349 0 251 -3 331 -13 339 -17 15 -61 25 -70 16z"/>
<path d="M6440 2736 c0 -133 0 -132 47 -120 30 8 47 71 40 148 -6 64 -17 81
-59 91 l-28 7 0 -126z"/>
<path d="M3664 1637 c-2 -7 -3 -80 -2 -162 3 -133 5 -150 21 -153 16 -3 17 10
17 162 0 142 -2 166 -15 166 -9 0 -18 -6 -21 -13z"/>
<path d="M6370 1485 c0 -134 3 -165 14 -165 21 0 26 33 26 165 0 132 -5 165
-26 165 -11 0 -14 -31 -14 -165z"/>
<path d="M4920 1590 c0 -44 3 -51 18 -48 13 3 17 13 17 48 0 35 -4 45 -17 48
-15 3 -18 -4 -18 -48z"/>
</g>
</svg>
