<?xml version="1.0" standalone="no"?>
<!DOCTYPE svg PUBLIC "-//W3C//DTD SVG 20010904//EN"
 "http://www.w3.org/TR/2001/REC-SVG-20010904/DTD/svg10.dtd">
<svg version="1.0" xmlns="http://www.w3.org/2000/svg"
 width="1280.000000pt" height="537.000000pt" viewBox="0 0 1280.000000 537.000000"
 preserveAspectRatio="xMidYMid meet">

<g transform="translate(0.000000,537.000000) scale(0.100000,-0.100000)"
fill="#000000" stroke="none">
<path d="M7606 3489 c-10 -6 -86 -13 -170 -15 -234 -5 -543 -23 -572 -34 -14
-6 -36 -10 -50 -10 -19 0 -28 -8 -39 -33 -14 -34 -139 -147 -163 -147 -7 0
-39 -24 -70 -54 -84 -80 -225 -196 -237 -196 -5 0 -30 -29 -53 -65 -51 -75
-116 -138 -140 -133 -15 3 -17 21 -20 141 l-3 138 -117 -3 -117 -3 -1 -340
c-1 -187 1 -358 5 -380 l6 -40 110 0 110 0 5 142 c3 78 8 144 12 148 9 9 28
-3 75 -45 21 -19 65 -57 98 -85 33 -27 74 -62 90 -77 17 -14 46 -40 65 -57
l35 -31 158 0 c86 0 157 4 157 8 0 5 -50 51 -112 103 -61 52 -161 137 -221
189 l-111 94 90 83 c193 181 496 449 524 464 16 9 36 21 43 27 7 6 123 15 280
22 l268 12 45 -38 c45 -36 46 -39 40 -80 -3 -23 -37 -105 -76 -182 -59 -116
-78 -145 -111 -166 -32 -22 -51 -46 -35 -46 13 0 146 43 171 56 17 8 81 28
142 43 62 16 126 39 142 50 45 32 91 108 91 150 0 47 -18 72 -86 117 -57 38
-59 43 -38 97 3 10 -5 22 -23 33 -43 27 -124 106 -134 132 -9 24 -33 28 -63
11z m-26 -44 c0 -13 -75 -70 -89 -68 -9 2 -74 9 -145 18 -154 17 -188 35 -70
36 43 0 102 4 129 9 60 9 175 12 175 5z m105 -65 c21 -22 36 -42 32 -46 -8 -8
-94 25 -108 42 -9 11 -8 18 1 29 19 23 33 18 75 -25z m-830 -30 c15 -6 25 -14
23 -19 -3 -10 -244 -170 -323 -215 l-50 -29 25 28 c14 15 42 38 63 52 21 13
43 34 48 46 13 27 156 147 174 147 8 0 26 -5 40 -10z"/>
<path d="M5009 3071 c-130 -24 -209 -116 -196 -227 6 -61 42 -108 154 -204
112 -97 127 -121 95 -153 -19 -19 -33 -22 -95 -21 -48 1 -90 8 -126 22 -30 12
-56 20 -58 19 -1 -2 0 -47 4 -100 l6 -96 56 -7 c31 -4 103 -8 161 -8 97 0 110
2 172 31 91 43 123 90 123 183 0 57 -4 71 -30 107 -17 22 -71 75 -121 116 -50
41 -94 83 -98 92 -13 35 -6 53 28 69 42 20 73 20 155 1 35 -9 65 -14 67 -12 2
2 1 42 -3 89 l-6 86 -31 6 c-61 11 -212 15 -257 7z"/>
<path d="M3230 2948 c0 -124 -16 -463 -26 -572 l-7 -68 244 5 c187 3 256 8
295 21 151 48 239 189 238 381 -1 134 -43 234 -122 289 -68 46 -134 56 -389
56 l-233 0 0 -112z m401 -59 c78 -26 115 -98 106 -204 -11 -144 -76 -205 -225
-213 l-84 -5 6 49 c3 27 8 124 12 217 l6 167 73 0 c39 0 87 -5 106 -11z"/>
<path d="M4000 3055 c0 -2 56 -105 124 -228 l124 -223 -9 -110 c-4 -60 -8
-126 -8 -146 l-1 -38 114 0 c135 0 126 -12 126 161 l0 116 160 236 159 237
-128 0 -128 0 -77 -130 c-42 -72 -80 -129 -84 -126 -4 2 -32 61 -62 130 l-55
126 -127 0 c-71 0 -128 -2 -128 -5z"/>
<path d="M7063 2850 c-112 -24 -204 -92 -237 -178 -19 -50 -21 -148 -4 -205
18 -59 81 -120 153 -147 84 -32 216 -32 299 0 138 53 207 202 165 354 -16 57
-90 131 -155 155 -63 24 -163 33 -221 21z m155 -136 c62 -41 82 -150 41 -224
-68 -120 -243 -98 -278 35 -22 84 27 181 105 205 37 12 102 4 132 -16z"/>
<path d="M7560 2807 c0 -64 -20 -452 -25 -479 l-4 -28 78 0 78 0 6 83 c4 45 7
128 7 183 0 56 3 116 6 133 6 30 9 31 55 31 41 0 51 -4 65 -25 15 -23 15 -27
0 -50 -9 -14 -24 -25 -34 -26 -76 -4 -72 1 -51 -81 10 -38 10 -38 62 -38 62 0
125 27 155 64 47 61 53 149 12 206 -35 49 -83 60 -255 60 l-155 0 0 -33z"/>
<path d="M5437 2713 c-4 -3 -7 -37 -7 -75 l0 -68 145 0 145 0 0 38 c0 20 3 54
6 75 l7 37 -145 0 c-80 0 -148 -3 -151 -7z"/>
</g>
</svg>
